<svg xmlns="http://www.w3.org/2000/svg" xmlns:xlink="http://www.w3.org/1999/xlink" width="140" height="140"
     viewBox="0 0 70 70">
    <defs>
        <path id="a" d="M4 0h61c4 0 5 1 5 5v60c0 4-1 5-5 5H4c-3 0-4-1-4-5V5c0-4 1-5 4-5z" />
        <linearGradient id="c" x1="100%" x2="0%" y1="0%" y2="100%">
            <!--    <stop offset="0%" stop-color="#DA956B"/>
                <stop offset="100%" stop-color="#CC7039"/>-->

            <stop offset="0%" stop-color="#C2DFFF" />
            <stop offset="100%" stop-color="#6698FF" />-
        </linearGradient>

        <svg id="d" width="359pt" height="375pt" viewBox="0 0 359 375" version="1.1">

        </svg>


    </defs>
    <g fill="none" fill-rule="evenodd">
        <mask id="b" fill="#fff">
            <use xlink:href="#a" />
        </mask>
        <g mask="url(#b)">
            <path fill="url(#c)" d="M0 0H70V70H0z" />
            <path fill="#FFF" fill-opacity=".383" d="M4 1h61c2.667 0 4.333.667 5 2V0H0v3c.667-1.333 2-2 4-2z" />
            <path fill="#000" fill-opacity=".383" d="M4 69h61c2.667 0 4.333-1 5-3v4H0v-4c.667 2 2 3 4 3z" />

            <svg x="40" y="0" width="25" height="25" viewBox="0 0 3 2">
                <rect width="3" height="2" x="0" y="0" fill="#002B7F" />
                <rect width="2" height="2" x="1" y="0" fill="#FCD116" />
                <rect width="1" height="2" x="2" y="0" fill="#CE1126" />
            </svg>


            <svg fill="#FFF" x="5" y="20" width="45" height="45" viewBox="0 0 576 512">
                <use fill="#000" fill-rule="nonzero" opacity=".3" xlink:href="#d" />
            </svg>

            <svg fill="#FFF" x="5" y="19" width="45" height="45" viewBox="0 0 576 512">
                <use fill="#FFF" fill-rule="nonzero" xlink:href="#d" />
            </svg>

             <svg fill="#FFF" x="10" y="20" width="45" height="45" viewBox="0 0 491.1 491.1">
                <g transform="translate(0 -540.36)">
                    <g>
                        <g>
                            <path
                d="M401.5,863.31c-12,0-23.4,4.7-32,13.2c-8.6,8.6-13.4,19.8-13.4,31.8s4.7,23.2,13.4,31.8c8.7,8.5,20,13.2,32,13.2
				c24.6,0,44.6-20.2,44.6-45S426.1,863.31,401.5,863.31z M401.5,933.31c-13.8,0-25.4-11.4-25.4-25s11.6-25,25.4-25
				c13.6,0,24.6,11.2,24.6,25S415.1,933.31,401.5,933.31z"
              />
                            <path
                d="M413.1,713.41c-1.8-1.7-4.2-2.6-6.7-2.6h-51.3c-5.5,0-10,4.5-10,10v82c0,5.5,4.5,10,10,10h81.4c5.5,0,10-4.5,10-10v-54.9
				c0-2.8-1.2-5.5-3.3-7.4L413.1,713.41z M426.5,792.81h-61.4v-62.1h37.4l24,21.6V792.81z"
              />
                            <path
                d="M157.3,863.31c-12,0-23.4,4.7-32,13.2c-8.6,8.6-13.4,19.8-13.4,31.8s4.7,23.2,13.4,31.8c8.7,8.5,20,13.2,32,13.2
				c24.6,0,44.6-20.2,44.6-45S181.9,863.31,157.3,863.31z M157.3,933.31c-13.8,0-25.4-11.4-25.4-25s11.6-25,25.4-25
				c13.6,0,24.6,11.2,24.6,25S170.9,933.31,157.3,933.31z"
              />
                            <path
                d="M90.6,875.61H70.5v-26.6c0-5.5-4.5-10-10-10s-10,4.5-10,10v36.6c0,5.5,4.5,10,10,10h30.1c5.5,0,10-4.5,10-10
				S96.1,875.61,90.6,875.61z"
              />
                            <path
                d="M141.3,821.11c0-5.5-4.5-10-10-10H10c-5.5,0-10,4.5-10,10s4.5,10,10,10h121.3C136.8,831.11,141.3,826.71,141.3,821.11z"
              />
                            <path
                d="M30.3,785.01l121.3,0.7c5.5,0,10-4.4,10.1-9.9c0.1-5.6-4.4-10.1-9.9-10.1l-121.3-0.7c-0.1,0-0.1,0-0.1,0
				c-5.5,0-10,4.4-10,9.9C20.3,780.51,24.8,785.01,30.3,785.01z"
              />
                            <path
                d="M50.7,739.61H172c5.5,0,10-4.5,10-10s-4.5-10-10-10H50.7c-5.5,0-10,4.5-10,10S45.2,739.61,50.7,739.61z"
              />
                            <path
                d="M487.4,726.11L487.4,726.11l-71.6-59.3c-1.8-1.5-4-2.3-6.4-2.3h-84.2v-36c0-5.5-4.5-10-10-10H60.5c-5.5,0-10,4.5-10,10
				v73.2c0,5.5,4.5,10,10,10s10-4.5,10-10v-63.2h234.8v237.1h-82c-5.5,0-10,4.5-10,10s4.5,10,10,10h122.1c5.5,0,10-4.5,10-10
				s-4.5-10-10-10h-20.1v-191.1h80.6l65.2,54l-0.7,136.9H460c-5.5,0-10,4.5-10,10s4.5,10,10,10h20.3c5.5,0,10-4.4,10-9.9l0.8-151.6
				C491,730.91,489.7,728.01,487.4,726.11z"
              />
                        </g>
                    </g>
                </g>
            </svg>

        </g>
    </g>
</svg>
