<svg xmlns="http://www.w3.org/2000/svg" xmlns:xlink="http://www.w3.org/1999/xlink" width="140" height="140"
     viewBox="0 0 70 70">
    <defs>
        <path id="a" d="M4 0h61c4 0 5 1 5 5v60c0 4-1 5-5 5H4c-3 0-4-1-4-5V5c0-4 1-5 4-5z"/>
        <linearGradient id="c" x1="100%" x2="0%" y1="0%" y2="100%">
            <!--    <stop offset="0%" stop-color="#DA956B"/>
                <stop offset="100%" stop-color="#CC7039"/>-->

            <stop offset="0%" stop-color="#C2DFFF"/>
            <stop offset="100%" stop-color="#6698FF"/>-
        </linearGradient>

        <svg id="d" width="359pt" height="375pt" viewBox="0 0 359 375" version="1.1">
            <defs>
                <clipPath id="clip0">
                    <rect width="359" height="375"/>
                </clipPath>
            </defs>
            <g id="surface0" clip-path="url(#clip0)">
                <path style="fill: none; stroke-width: 0.1; stroke-linecap: butt; stroke-linejoin: miter; stroke: rgb(100%,100%,100%); opacity: 1;stroke-miterlimit: 10;"
                      d="M 0 0 L 359 0 L 359 375 L 357.749405 375 C 357.753479 309.670929 357.738953 244.342163 357.756653 179.01329 C 358.0112 168.704315 356.733521 157.44574 349.726181 149.345703 C 343.668808 141.998795 333.952621 138.938156 324.709167 138.648315 C 285.538666 191.232742 246.37886 243.825394 207.311325 296.48613 C 241.374268 296.518341 275.437256 296.480637 309.500565 296.504959 C 309.502228 304.834229 309.502121 313.164108 309.50061 321.495041 C 266.584305 321.514206 223.66832 321.490875 180.752258 321.506638 C 180.744324 339.337402 180.751144 357.168365 180.748901 375 L 0 375 L 0 0 Z M 0 0 "
                      transform="matrix(1,0,0,1,0,0)"/>
                <!--<path style="stroke: none; fill-rule: nonzero; fill: rgb(100%,100%,100%); opacity: 1;" d="M 0 0 L 359 0 L 359 375 L 357.749405 375 C 357.753479 309.670929 357.738953 244.342163 357.756653 179.01329 C 358.0112 168.704315 356.733521 157.44574 349.726181 149.345703 C 343.668808 141.998795 333.952621 138.938156 324.709167 138.648315 C 285.538666 191.232742 246.37886 243.825394 207.311325 296.48613 C 241.374268 296.518341 275.437256 296.480637 309.500565 296.504959 C 309.502228 304.834229 309.502121 313.164108 309.50061 321.495041 C 266.584305 321.514206 223.66832 321.490875 180.752258 321.506638 C 180.744324 339.337402 180.751144 357.168365 180.748901 375 L 0 375 L 0 0 Z M 0 0 "/>-->
                <path style="fill: none; stroke-width: 0.1; stroke-linecap: butt; stroke-linejoin: miter; stroke: rgb(0%,0%,0%); opacity: 1;stroke-miterlimit: 10;"
                      d="M 174.41861 0.995377 C 216.528152 0.971588 258.639893 0.950684 300.748901 0.989822 C 300.739517 12.829453 300.766968 24.668945 300.734863 36.508575 C 266.753296 36.484909 232.772049 36.503189 198.790771 36.49942 C 190.662308 24.667587 182.512177 12.850784 174.41861 0.995377 Z M 174.41861 0.995377 "
                      transform="matrix(1,0,0,1,0,0)"/>
                <path style="stroke: none; fill-rule: nonzero; fill: rgb(0%,0%,0%); opacity: 1;"
                      d="M 174.41861 0.995377 C 216.528152 0.971588 258.639893 0.950684 300.748901 0.989822 C 300.739517 12.829453 300.766968 24.668945 300.734863 36.508575 C 266.753296 36.484909 232.772049 36.503189 198.790771 36.49942 C 190.662308 24.667587 182.512177 12.850784 174.41861 0.995377 Z M 174.41861 0.995377 "/>
                <!--<path style="fill: none; stroke-width: 0.1; stroke-linecap: butt; stroke-linejoin: miter; stroke: rgb(0%,0%,0%); opacity: 1;stroke-miterlimit: 10;" d="M 15.750793 20.506271 C 39.185379 20.512314 62.621155 20.473328 86.054977 20.524307 C 93.43013 20.756836 101.301697 26.136887 101.737061 33.980652 C 101.771622 59.024506 101.728958 84.069977 101.757797 109.114517 C 101.768234 113.660751 100.319931 118.6474 96.382843 121.322098 C 91.719635 124.522339 85.773209 123.795471 80.425827 124.118195 C 80.596146 132.733765 80.437714 141.352814 80.513672 149.970367 C 80.618439 154.214111 79.203201 159.014297 75.399582 161.361282 C 72.449402 163.323761 68.411697 162.522858 65.868942 160.251495 C 49.155716 147.19194 32.434906 134.141998 15.750549 121.0457 C 15.748123 87.532425 15.747665 54.01944 15.750793 20.506271 Z M 15.750793 20.506271 " transform="matrix(1,0,0,1,0,0)"/>-->
                <path style="stroke: none; fill-rule: nonzero; fill: rgb(0%,0%,0%); opacity: 1;"
                      d="M 15.750793 20.506271 C 39.185379 20.512314 62.621155 20.473328 86.054977 20.524307 C 93.43013 20.756836 101.301697 26.136887 101.737061 33.980652 C 101.771622 59.024506 101.728958 84.069977 101.757797 109.114517 C 101.768234 113.660751 100.319931 118.6474 96.382843 121.322098 C 91.719635 124.522339 85.773209 123.795471 80.425827 124.118195 C 80.596146 132.733765 80.437714 141.352814 80.513672 149.970367 C 80.618439 154.214111 79.203201 159.014297 75.399582 161.361282 C 72.449402 163.323761 68.411697 162.522858 65.868942 160.251495 C 49.155716 147.19194 32.434906 134.141998 15.750549 121.0457 C 15.748123 87.532425 15.747665 54.01944 15.750793 20.506271 Z M 15.750793 20.506271 "/>
                <!--<path style="fill: none; stroke-width: 0.1; stroke-linecap: butt; stroke-linejoin: miter; stroke: rgb(100%,100%,100%); opacity: 1;stroke-miterlimit: 10;" d="M 34.419205 31.03212 C 51.306351 30.966415 68.194763 31.005096 85.081848 31.009476 C 88.352692 30.941437 92.14743 33.347397 91.991714 36.950455 C 92.020157 60.31311 91.977631 83.677078 92.012421 107.040283 C 92.085556 108.903641 91.773636 110.992401 90.212814 112.224152 C 87.575668 114.827164 83.537659 113.398499 80.251953 113.742462 C 80.221207 99.448227 80.306076 85.151932 80.213547 70.859573 C 80.061691 65.660416 76.6884 61.263794 72.626846 58.320587 C 59.903549 49.207352 47.088959 40.219055 34.419205 31.03212 Z M 34.419205 31.03212 " transform="matrix(1,0,0,1,0,0)"/>-->
                <path style="stroke: none; fill-rule: nonzero; fill: rgb(100%,100%,100%); opacity: 1;"
                      d="M 34.419205 31.03212 C 51.306351 30.966415 68.194763 31.005096 85.081848 31.009476 C 88.352692 30.941437 92.14743 33.347397 91.991714 36.950455 C 92.020157 60.31311 91.977631 83.677078 92.012421 107.040283 C 92.085556 108.903641 91.773636 110.992401 90.212814 112.224152 C 87.575668 114.827164 83.537659 113.398499 80.251953 113.742462 C 80.221207 99.448227 80.306076 85.151932 80.213547 70.859573 C 80.061691 65.660416 76.6884 61.263794 72.626846 58.320587 C 59.903549 49.207352 47.088959 40.219055 34.419205 31.03212 Z M 34.419205 31.03212 "/>
                <!--<path style="fill: none; stroke-width: 0.1; stroke-linecap: butt; stroke-linejoin: miter; stroke: rgb(0%,0%,0%); opacity: 1;stroke-miterlimit: 10;" d="M 199.702652 47.315002 C 233.463898 47.162079 267.228271 47.300629 300.991074 47.245728 C 301.013168 56.155029 300.98526 65.064377 301.00946 73.973953 C 300.838852 87.185516 294.869278 100.174835 284.932251 108.891602 C 273.56572 119.214233 257.214706 123.929062 242.133133 120.799515 C 227.819534 118.11853 214.816254 108.597778 208.445343 95.435638 C 205.017487 88.636887 203.283966 80.995422 203.463989 73.382614 C 195.41861 73.0616 187.361008 73.374588 179.311798 73.218384 C 185.987747 64.490143 193.016846 56.036255 199.702652 47.315002 Z M 199.702652 47.315002 " transform="matrix(1,0,0,1,0,0)"/>-->
                <path style="stroke: none; fill-rule: nonzero; fill: rgb(0%,0%,0%); opacity: 1;"
                      d="M 199.702652 47.315002 C 233.463898 47.162079 267.228271 47.300629 300.991074 47.245728 C 301.013168 56.155029 300.98526 65.064377 301.00946 73.973953 C 300.838852 87.185516 294.869278 100.174835 284.932251 108.891602 C 273.56572 119.214233 257.214706 123.929062 242.133133 120.799515 C 227.819534 118.11853 214.816254 108.597778 208.445343 95.435638 C 205.017487 88.636887 203.283966 80.995422 203.463989 73.382614 C 195.41861 73.0616 187.361008 73.374588 179.311798 73.218384 C 185.987747 64.490143 193.016846 56.036255 199.702652 47.315002 Z M 199.702652 47.315002 "/>
                <!--<path style="fill: none; stroke-width: 0.1; stroke-linecap: butt; stroke-linejoin: miter; stroke: rgb(0%,0%,0%); opacity: 1;stroke-miterlimit: 10;" d="M 145.556885 155.464798 C 153.113342 145.810852 164.428741 138.514282 177.01001 138.52739 C 216.735321 138.468491 256.462296 138.517136 296.188553 138.50354 C 257.671249 189.581253 219.222198 240.718262 180.527191 291.659836 C 180.465149 256.635239 180.524857 221.61055 180.497284 186.58609 C 163.589905 208.993881 146.842773 231.524414 130.01152 253.989838 C 125.817322 258.846909 119.32756 261.567352 112.938873 261.518341 C 106.48793 261.384262 100.378983 258.610107 95.302353 254.76683 C 72.00975 236.369934 48.660736 218.042404 25.365219 199.64949 C 20.350159 195.657883 16.644272 189.566467 16.71286 183.022797 C 16.086761 170.412888 27.407288 158.689972 40.021576 158.769699 C 45.406799 158.809753 50.65213 160.891968 54.860229 164.200485 C 72.49353 178.137497 90.066345 192.152359 107.715225 206.069733 C 120.358826 189.223434 132.860626 172.270828 145.556885 155.464798 Z M 145.556885 155.464798 " transform="matrix(1,0,0,1,0,0)"/>-->
                <path style="stroke: none; fill-rule: nonzero; fill: rgb(0%,0%,0%); opacity: 1;"
                      d="M 145.556885 155.464798 C 153.113342 145.810852 164.428741 138.514282 177.01001 138.52739 C 216.735321 138.468491 256.462296 138.517136 296.188553 138.50354 C 257.671249 189.581253 219.222198 240.718262 180.527191 291.659836 C 180.465149 256.635239 180.524857 221.61055 180.497284 186.58609 C 163.589905 208.993881 146.842773 231.524414 130.01152 253.989838 C 125.817322 258.846909 119.32756 261.567352 112.938873 261.518341 C 106.48793 261.384262 100.378983 258.610107 95.302353 254.76683 C 72.00975 236.369934 48.660736 218.042404 25.365219 199.64949 C 20.350159 195.657883 16.644272 189.566467 16.71286 183.022797 C 16.086761 170.412888 27.407288 158.689972 40.021576 158.769699 C 45.406799 158.809753 50.65213 160.891968 54.860229 164.200485 C 72.49353 178.137497 90.066345 192.152359 107.715225 206.069733 C 120.358826 189.223434 132.860626 172.270828 145.556885 155.464798 Z M 145.556885 155.464798 "/>
                <!--<path style="fill: none; stroke-width: 0.1; stroke-linecap: butt; stroke-linejoin: miter; stroke: rgb(0%,0%,0%); opacity: 1;stroke-miterlimit: 10;" d="M 207.311325 296.48613 C 246.37886 243.825394 285.538666 191.232742 324.709167 138.648315 C 333.952621 138.938156 343.668808 141.998795 349.726181 149.345703 C 356.733521 157.44574 358.0112 168.704315 357.756653 179.01329 C 357.738953 244.342163 357.753479 309.670929 357.749405 375 L 180.748901 375 C 180.751144 357.168365 180.744324 339.337402 180.752258 321.506638 C 223.66832 321.490875 266.584305 321.514206 309.50061 321.495041 C 309.502121 313.164108 309.502228 304.834229 309.500565 296.504959 C 275.437256 296.480637 241.374268 296.518341 207.311325 296.48613 Z M 207.311325 296.48613 " transform="matrix(1,0,0,1,0,0)"/>-->
                <path style="stroke: none; fill-rule: nonzero; fill: rgb(0%,0%,0%); opacity: 1;"
                      d="M 207.311325 296.48613 C 246.37886 243.825394 285.538666 191.232742 324.709167 138.648315 C 333.952621 138.938156 343.668808 141.998795 349.726181 149.345703 C 356.733521 157.44574 358.0112 168.704315 357.756653 179.01329 C 357.738953 244.342163 357.753479 309.670929 357.749405 375 L 180.748901 375 C 180.751144 357.168365 180.744324 339.337402 180.752258 321.506638 C 223.66832 321.490875 266.584305 321.514206 309.50061 321.495041 C 309.502121 313.164108 309.502228 304.834229 309.500565 296.504959 C 275.437256 296.480637 241.374268 296.518341 207.311325 296.48613 Z M 207.311325 296.48613 "/>
            </g>
        </svg>


    </defs>
    <g fill="none" fill-rule="evenodd">
        <mask id="b" fill="#fff">
            <use xlink:href="#a"/>
        </mask>
        <g mask="url(#b)">
            <path fill="url(#c)" d="M0 0H70V70H0z"/>
            <path fill="#FFF" fill-opacity=".383" d="M4 1h61c2.667 0 4.333.667 5 2V0H0v3c.667-1.333 2-2 4-2z"/>
            <path fill="#000" fill-opacity=".383" d="M4 69h61c2.667 0 4.333-1 5-3v4H0v-4c.667 2 2 3 4 3z"/>

            <svg x="40" y="0" width="25" height="25" viewBox="0 0 3 2">
                <rect width="3" height="2" x="0" y="0" fill="#002B7F"/>
                <rect width="2" height="2" x="1" y="0" fill="#FCD116"/>
                <rect width="1" height="2" x="2" y="0" fill="#CE1126"/>
            </svg>


            <svg fill="#FFF" x="5" y="20" width="45" height="45" viewBox="0 0 576 512">
                <use fill="#000" fill-rule="nonzero" opacity=".3" xlink:href="#d"/>
            </svg>

            <svg fill="#FFF" x="5" y="19" width="45" height="45" viewBox="0 0 576 512">
                <use fill="#FFF" fill-rule="nonzero" xlink:href="#d"/>
            </svg>


        </g>
    </g>
</svg>
