<svg xmlns="http://www.w3.org/2000/svg" xmlns:xlink="http://www.w3.org/1999/xlink" width="140" height="140"
     viewBox="0 0 70 70">
    <defs>
        <path id="a" d="M4 0h61c4 0 5 1 5 5v60c0 4-1 5-5 5H4c-3 0-4-1-4-5V5c0-4 1-5 4-5z"/>
        <linearGradient id="c" x1="100%" x2="0%" y1="0%" y2="100%">
            <!--    <stop offset="0%" stop-color="#DA956B"/>
                <stop offset="100%" stop-color="#CC7039"/>-->

            <stop offset="0%" stop-color="#C2DFFF"/>
            <stop offset="100%" stop-color="#6698FF"/>-
        </linearGradient>

        <svg id="d" width="359pt" height="375pt" viewBox="0 0 359 375" version="1.1">

        </svg>


    </defs>
    <g fill="none" fill-rule="evenodd">
        <mask id="b" fill="#fff">
            <use xlink:href="#a"/>
        </mask>
        <g mask="url(#b)">
            <path fill="url(#c)" d="M0 0H70V70H0z"/>
            <path fill="#FFF" fill-opacity=".383" d="M4 1h61c2.667 0 4.333.667 5 2V0H0v3c.667-1.333 2-2 4-2z"/>
            <path fill="#000" fill-opacity=".383" d="M4 69h61c2.667 0 4.333-1 5-3v4H0v-4c.667 2 2 3 4 3z"/>

            <svg x="40" y="0" width="25" height="25" viewBox="0 0 3 2">
                <rect width="3" height="2" x="0" y="0" fill="#002B7F"/>
                <rect width="2" height="2" x="1" y="0" fill="#FCD116"/>
                <rect width="1" height="2" x="2" y="0" fill="#CE1126"/>
            </svg>


            <svg fill="#FFF" x="5" y="20" width="45" height="45" viewBox="0 0 576 512">
                <use fill="#000" fill-rule="nonzero" opacity=".3" xlink:href="#d"/>
            </svg>

            <svg fill="#FFF" x="10" y="19" width="40" height="49" viewBox="0 0 132 149">
                <use fill="#FFF" fill-rule="nonzero" xlink:href="#d"/>


                <svg

                        viewBox="0 0 132 149">
                    <path
                            fill="#38396B" stroke="black" stroke-width="1"
                            d="M 48.00,8.00
           C 49.60,5.88 54.35,2.38 57.13,2.74
             60.96,3.24 60.80,6.32 67.00,6.00
             72.78,10.62 93.40,13.65 101.00,13.92
             101.00,13.92 106.00,13.92 106.00,13.92
             107.69,13.82 109.80,13.50 111.14,14.83
             112.63,16.31 112.18,19.09 112.33,21.00
             112.33,21.00 113.24,27.00 113.24,27.00
             113.24,27.00 113.24,34.00 113.24,34.00
             113.24,34.00 113.24,46.42 113.24,46.42
             113.24,46.42 112.05,53.00 112.05,53.00
             112.05,53.00 112.05,60.99 112.05,60.99
             111.42,66.17 109.84,67.51 110.00,74.00
             107.37,77.27 105.88,81.79 106.00,86.00
             102.14,90.05 102.76,92.27 100.11,96.72
             95.71,104.10 90.50,111.01 84.33,116.99
             81.20,120.03 70.99,125.21 70.00,128.00
             70.00,128.00 65.00,128.00 65.00,128.00
             65.00,128.00 66.00,130.00 66.00,130.00
             63.47,130.08 62.00,129.50 61.00,131.77
             61.00,131.77 55.27,131.77 55.27,131.77
             45.53,129.31 36.26,122.59 29.33,115.67
             15.25,101.59 10.08,91.31 5.39,72.00
             5.39,72.00 2.30,59.00 2.30,59.00
             2.30,59.00 1.57,44.00 1.57,44.00
             1.57,44.00 1.57,36.00 1.57,36.00
             1.52,31.76 0.49,17.67 3.60,14.75
             5.43,13.03 12.59,13.58 15.54,13.36
             15.54,13.36 32.83,11.54 32.83,11.54
             37.68,10.31 43.07,7.79 48.00,8.00 Z
           M 103.00,24.00
           C 97.07,22.63 98.24,23.70 93.91,23.29
             93.91,23.29 88.00,22.20 88.00,22.20
             81.04,21.31 78.59,21.58 71.28,19.27
             68.74,18.47 60.09,14.51 58.31,15.28
             55.55,16.48 56.00,21.52 56.00,24.00
             56.00,24.00 56.00,65.00 56.00,65.00
             56.00,65.00 16.00,65.00 16.00,65.00
             15.45,66.99 15.10,67.85 15.23,70.00
             15.51,74.75 19.11,85.34 23.00,88.00
             23.00,88.00 22.00,90.00 22.00,90.00
             22.00,90.00 24.00,90.00 24.00,90.00
             24.05,94.57 24.99,95.88 29.00,98.00
             29.73,103.80 39.49,112.50 45.00,114.00
             45.00,114.00 44.00,116.00 44.00,116.00
             44.00,116.00 57.00,121.00 57.00,121.00
             59.20,115.74 58.01,112.63 58.00,107.00
             58.00,107.00 58.00,83.00 58.00,83.00
             58.04,79.85 57.87,70.85 60.44,69.02
             62.19,67.78 65.89,68.00 68.00,68.00
             76.43,67.98 94.08,69.64 101.00,66.00
             101.00,66.00 102.21,54.00 102.21,54.00
             102.21,54.00 103.00,38.00 103.00,38.00
             103.00,38.00 103.00,24.00 103.00,24.00 Z"/>
                </svg>

            </svg>
        </g>
    </g>
</svg>
